Coordinates
version=1
nRows=18
nColumns=22
inDegrees=yes

Units are S.I. units (second, meters, Newtons, ...)
If the header above contains a line with 'inDegrees', this indicates whether rotational values are in degrees (yes) or radians (no).

endheader
time	pelvis_tilt	pelvis_list	pelvis_rotation	pelvis_tx	pelvis_ty	pelvis_tz	hip_flexion_r	hip_adduction_r	hip_rotation_r	knee_angle_r	ankle_angle_r	subtalar_angle_r	hip_flexion_l	hip_adduction_l	hip_rotation_l	knee_angle_l	ankle_angle_l	subtalar_angle_l	lumbar_extension	lumbar_bending	lumbar_rotation
      5.47000000	     -3.35421647	      0.46574291	   -159.90525475	      0.31076936	      0.92467368	      0.82933596	      4.01594375	     10.54840645	     -2.98684292	    -15.07492190	      4.36759538	    -10.52193278	     19.10883362	    -14.77695818	     -9.75865983	    -50.18998311	      2.98355629	      3.29010573	     -9.64220056	     -1.31136943	      2.78436848
      5.48000000	     -3.28363310	      0.55799617	   -160.79000958	      0.30657566	      0.92492828	      0.83141803	      3.62809556	     10.53842867	     -2.15662260	    -14.90129046	      4.48685395	    -10.19411513	     19.15236964	    -14.89224687	    -10.03620815	    -47.59964789	      3.37817760	      3.08099574	     -9.60026620	     -1.30204878	      3.09620240
      5.49000000	     -3.15269276	      0.67479668	   -161.67219600	      0.30244111	      0.92502529	      0.83354232	      3.34876891	     10.51670466	     -1.36777042	    -14.79458533	      4.62717641	     -9.91362258	     19.19885482	    -14.96847224	    -10.29347327	    -44.90099245	      3.69092443	      3.08635749	     -9.48903641	     -1.27467940	      3.41012203
      5.50000000	     -2.95002510	      0.80893822	   -162.55066025	      0.29835459	      0.92494863	      0.83567837	      3.18481358	     10.48180710	     -0.60601219	    -14.75141335	      4.79597705	     -9.70640655	     19.26599201	    -15.00229332	    -10.52015019	    -42.11764908	      3.90276694	      3.20641323	     -9.29867484	     -1.24711609	      3.72623785
      5.51000000	     -2.75043834	      0.92677111	   -163.40025237	      0.29429213	      0.92484721	      0.83790106	      3.01266231	     10.42398342	      0.14618654	    -14.70660362	      4.98394862	     -9.48420763	     19.26509154	    -14.97462627	    -10.68537438	    -39.24927205	      3.97986781	      3.43932276	     -9.12338934	     -1.21591174	      3.99936395
      5.52000000	     -2.57409083	      1.04754666	   -164.20371176	      0.29025131	      0.92471818	      0.84019173	      2.82258780	     10.37221927	      0.87975905	    -14.66635491	      5.18398353	     -9.24123457	     19.20210796	    -14.91439438	    -10.75103694	    -36.33275897	      3.97071410	      3.84976137	     -8.98233785	     -1.16125021	      4.20064754
      5.53000000	     -2.32805451	      1.18588633	   -164.98276497	      0.28621645	      0.92442042	      0.84253025	      2.73391189	     10.31258658	      1.55733714	    -14.66611370	      5.40305337	     -9.06823480	     19.18801021	    -14.83122023	    -10.76921177	    -33.41483154	      3.88755627	      4.27345330	     -8.75924414	     -1.09971927	      4.38767987
      5.54000000	     -2.08234201	      1.33017242	   -165.71365874	      0.28214861	      0.92407097	      0.84495394	      2.63631987	     10.25433342	      2.18776833	    -14.64120027	      5.62846208	     -8.88898475	     19.15141563	    -14.73369755	    -10.72441591	    -30.51050218	      3.75416181	      4.82008282	     -8.53278255	     -1.01895946	      4.51923948
      5.55000000	     -1.82012069	      1.47973376	   -166.41728997	      0.27808856	      0.92363690	      0.84741491	      2.58364433	     10.19641961	      2.78957491	    -14.66229215	      5.88012748	     -8.72258298	     19.11750862	    -14.62871637	    -10.64222786	    -27.65288690	      3.57170703	      5.37798728	     -8.29371949	     -0.92819324	      4.61230606
      5.56000000	     -1.55494205	      1.63154947	   -167.08528712	      0.27400389	      0.92314936	      0.84992823	      2.54194234	     10.13761780	      3.35065250	    -14.69367350	      6.14702844	     -8.55047888	     19.07694273	    -14.52404021	    -10.55239768	    -24.86680000	      3.35782548	      5.96934045	     -8.05157175	     -0.82937506	      4.65884020
      5.57000000	     -1.29576338	      1.78727405	   -167.71560878	      0.26987200	      0.92262953	      0.85252085	      2.48873359	     10.07978299	      3.86886193	    -14.71101067	      6.42180706	     -8.35994898	     19.02647063	    -14.42273345	    -10.46901353	    -22.17990506	      3.11829186	      6.62616699	     -7.81171342	     -0.71600831	      4.66927710
      5.58000000	     -1.02493160	      1.93144120	   -168.32994441	      0.26574091	      0.92205314	      0.85515414	      2.47841660	     10.00561949	      4.34279795	    -14.78984437	      6.73319307	     -8.18606973	     18.98863426	    -14.31218165	    -10.44047665	    -19.62615672	      2.82169168	      7.22036706	     -7.56493657	     -0.61337197	      4.65719786
      5.59000000	     -0.78602852	      2.07873831	   -168.90550080	      0.26156404	      0.92147632	      0.85787367	      2.42732520	      9.93869733	      4.80312315	    -14.85417060	      7.04201089	     -7.97335155	     18.92912377	    -14.20548635	    -10.42623193	    -17.22619288	      2.54971764	      7.98620075	     -7.35137712	     -0.49232576	      4.59436130
      5.60000000	     -0.55449233	      2.22102202	   -169.44965040	      0.25735864	      0.92086926	      0.86068401	      2.38048218	      9.86388044	      5.21918524	    -14.94150381	      7.36590427	     -7.75820966	     18.88394207	    -14.09019253	    -10.45031406	    -15.01896162	      2.26501642	      8.80520863	     -7.14394375	     -0.36660581	      4.50843927
      5.61000000	     -0.33513552	      2.35322669	   -169.96514574	      0.25312384	      0.92023647	      0.86357011	      2.33456827	      9.77865726	      5.60499387	    -15.05926894	      7.70459226	     -7.54083654	     18.85155825	    -13.96157815	    -10.50572482	    -13.02584065	      1.97792702	      9.68886239	     -6.95032508	     -0.24549041	      4.39700430
      5.62000000	     -0.13675998	      2.47361789	   -170.45759139	      0.24888036	      0.91958792	      0.86653598	      2.29040353	      9.68453169	      5.98357033	    -15.22680870	      8.05838705	     -7.31579742	     18.82194704	    -13.81826525	    -10.55520453	    -11.26261742	      1.70251361	     10.65241251	     -6.78362873	     -0.12761119	      4.26234237
      5.63000000	      0.04382935	      2.59021100	   -170.92397157	      0.24459595	      0.91891677	      0.86956554	      2.24301528	      9.58860564	      6.32831310	    -15.42453123	      8.43231708	     -7.09263656	     18.80073401	    -13.67183842	    -10.58592984	     -9.74484785	      1.44137682	     11.62033732	     -6.63285726	     -0.01023815	      4.13437882
      5.64000000	      0.20724492	      2.68193328	   -171.38306581	      0.24028336	      0.91822362	      0.87262770	      2.21680272	      9.47139060	      6.63857663	    -15.70776741	      8.82673027	     -6.88567777	     18.77445831	    -13.50807482	    -10.59767568	     -8.48035363	      1.21764687	     12.48961808	     -6.50431960	      0.07851552	      4.02428969
